<svg xmlns="http://www.w3.org/2000/svg" xmlns:xlink="http://www.w3.org/1999/xlink" viewBox="0 0 2226.83 435.52"><defs><style>.cls-1{fill:url(#linear-gradient);}.cls-2{fill:#00a7ff;}.cls-3{fill:#1a2d35;}</style><linearGradient id="linear-gradient" x1="198.99" y1="578.02" x2="354.38" y2="71.55" gradientUnits="userSpaceOnUse"><stop offset="0" stop-color="#00a7ff"/><stop offset="0.19" stop-color="#00a5fb"/><stop offset="0.37" stop-color="#009df0"/><stop offset="0.54" stop-color="#0091de"/><stop offset="0.7" stop-color="#0080c4"/><stop offset="0.86" stop-color="#006aa2"/><stop offset="1" stop-color="#005480"/></linearGradient></defs><title>cimuf_dark</title><g id="Layer_2" data-name="Layer 2"><g id="Layer_1-2" data-name="Layer 1"><path class="cls-1" d="M.3,435.14l446.5,0c10.94,0,22.52-.17,31.84-5.9,17.14-10.54,19.14-34.21,19.26-54.33l.45-79.87c.19-33.32.24-67.46-11.2-98.76C477,168.5,457.48,144.38,433,127.87a142.49,142.49,0,0,0-18.58-10.57q-4.83-2.28-9.84-4.18c-2.23-.85-7.05-3.37-9.58-3.11a.21.21,0,0,0-.12.37c14.53,14.29,16.38,37.53,17.08,56.73.92,25,1.78,50.1,1.27,75.17-.3,14.71-.76,30.2-1.16,45.2-.37,13.65,1.23,29.15-5.62,41.56-9.43,17.1-32.45,19.94-52,20.19-80.05,1-161.53-7.15-239.16,12.44C70,373.09,25,395.72,0,435.14Z"/><path class="cls-2" d="M.09,14.37s.05.12.17.35c2.85,5.65,41.49,76.62,196,85.21l2.86.16q10.21.51,21.1.65c49.91.62,99.83,0,149.73,0a139,139,0,0,1,72.91,20.78,120.92,120.92,0,0,1,26.74,22.56,118.46,118.46,0,0,1,26.92,55.57l.59,3.2c.28,1.79.53,3.57.76,5.36V57.55a43.19,43.19,0,0,0-43.19-43.18Z"/><path class="cls-2" d="M510.83,14.52l.35.15c5.65,2.41,76.62,35.09,85.21,165.75l.15,2.42q.53,8.64.66,17.85c.62,42.21,0,84.43,0,126.64,0,21.59,7.27,43.34,20.78,61.67a108.91,108.91,0,0,0,22.56,22.62c15.45,11.52,35.33,19.55,55.57,22.76l3.2.5c1.79.24,3.57.46,5.35.64H554c-23.85,0-43.18-16.35-43.18-36.53Z"/><path class="cls-2" d="M1157.92,85.64l-84.2,39-.13-95.79A28.87,28.87,0,0,1,1102.45,0h26.61a28.87,28.87,0,0,1,28.86,28.87Z"/><path class="cls-3" d="M1022.35,309.28c-8,28.41-22.73,71.59-31.82,91.48-14.77,3.4-61.37,14.77-104.55,14.77-152.84,0-215.91-98.3-215.91-188.64,0-117.61,89.78-197.16,226.14-197.16,49.43,0,93.18,11.93,107.39,13.63,2.83,26.71,6.81,68.75,10.79,93.76l-22.73,4c-11.93-44.32-29-65.34-59.09-77.27-13.63-5.68-34.09-8-49.43-8-82.39,0-123.86,68.75-123.86,158,0,104,53.41,174.43,131.25,174.43,47.72,0,79.54-25,110.22-87.5Z"/><path class="cls-3" d="M1204.7,387.67V407H1062.08V387.67c30.66-3.95,34.09-6.24,34.09-46.58V230.28c0-38.05-2.8-40.34-29.52-43.77V167.8c35.76-4,69.34-34,100.63-43.14l2.18,216.43C1169.46,379.77,1171.75,383.72,1204.7,387.67Z"/><path class="cls-3" d="M1543.89,407V387.68c22.73-3.41,26.71-5.68,26.71-40.33v-98.3c0-47.16-22.16-55.68-39.78-55.68-11.36,0-24.43,3.4-42,17.61.57,6.82,1.14,15.34,1.14,23.86V349.62c0,31.82,1.7,34.65,27.84,38.06V407H1389.91V387.68c25-3.41,27.28-5.11,27.28-38.06V246.21c0-40.34-15.92-53.41-36.93-53.41-14.21,0-27.85,5.11-43.76,17V349.62c0,31.82,3.41,34.65,24.44,38.06V407H1230.82V387.68c31.25-4,33-6.24,33-40.33V226.89c0-31.82-.56-36.93-27.26-40.91V167.8c31.81-3.41,64.2-11.36,100-21.59v42.61c12.5-8.52,22.73-15.91,34.66-23.29,17.62-10.8,31.25-17.62,48.3-17.62,31.82,0,52.84,17.05,63.63,43.18,13.64-10.22,25-18.18,39.21-27.84,12.5-7.95,28.41-15.34,45.45-15.34,49.44,0,75.58,33.52,75.58,91.48V349.62c0,31.25,2.83,33.52,30.67,38.06V407Z"/><path class="cls-3" d="M1987.05,393.37c-34.1,4.54-70.46,11.93-108,20.45V375.19c-23.3,19.31-47.16,38.63-78.41,38.63-47.73,0-74.43-30.68-74.43-81.25V215c0-26.14-3.41-29-18.75-33l-11.93-3.41V160.41c29-1.14,73.86-5.11,105.68-9.66-1.14,23.87-1.71,53.41-1.71,85.8v83c0,36.93,18.75,49.42,38.64,49.42,15.91,0,28.41-3.4,40.91-16.47V215.52c0-26.13-2.84-30.68-18.75-33.52l-17-3.41V160.41c33-1.14,81.26-5.11,109.66-9.66V336c0,29.55,3.41,35.8,21.59,37.5l12.51,1.14Z"/><path class="cls-3" d="M2046.68,154.73V142.8c0-38.64,21.6-79,54-104.55,20.45-17,42.61-26.14,69.88-29.54,21.59,0,39.21,6.24,49.43,15.9,8,8,8,17,5.12,25.57a47,47,0,0,1-20.46,25c-9.66,5.69-15.34,4-21-1.13C2170,59.84,2152.94,41.66,2137,41.66c-15.34,0-17.62,15.34-17.05,88.64v24.43h52.28c2.27,5.68,0,23.86-8,28.41H2120V345.07c0,35.23,4,38.07,40.34,42.61V407H2013.16V387.68c31.82-4.54,33.52-7.38,33.52-42.61V183.14h-37.49l-2.85-7.39,14.78-21Z"/></g></g></svg>