<svg xmlns="http://www.w3.org/2000/svg" xmlns:xlink="http://www.w3.org/1999/xlink" viewBox="0 0 1074.99 709"><defs><style>.cls-1{fill:url(#linear-gradient);}.cls-2{fill:#00a7ff;}</style><linearGradient id="linear-gradient" x1="300.33" y1="934.73" x2="555.23" y2="103.96" gradientUnits="userSpaceOnUse"><stop offset="0" stop-color="#00a7ff"/><stop offset="0.19" stop-color="#00a5fb"/><stop offset="0.37" stop-color="#009df0"/><stop offset="0.54" stop-color="#0091de"/><stop offset="0.7" stop-color="#0080c4"/><stop offset="0.86" stop-color="#006aa2"/><stop offset="1" stop-color="#005480"/></linearGradient></defs><title>shortlrl</title><g id="Layer_2" data-name="Layer 2"><g id="Layer_1-2" data-name="Layer 1"><path class="cls-1" d="M.46,708.35l681.15.06c16.69,0,34.35-.28,48.57-9.93,26.14-17.74,29.2-57.59,29.37-91.45q.35-67.23.7-134.46c.29-56.09.37-113.58-17.08-166.26-15.52-46.83-45.27-87.44-82.68-115.22a210.76,210.76,0,0,0-28.34-17.8q-7.38-3.84-15-7c-3.41-1.43-10.75-5.67-14.62-5.22a.37.37,0,0,0-.19.62c22.18,24.05,25,63.17,26.07,95.5,1.4,42.17,2.71,84.33,1.93,126.55-.45,24.76-1.15,50.83-1.77,76.09-.56,23,1.87,49.07-8.57,70-14.39,28.79-49.51,33.56-79.3,34-122.12,1.74-246.42-12-364.84,20.94C106.78,603.89,38.17,642,0,708.35Z"/><path class="cls-2" d="M.13,0,.39.6c4.35,9.51,63.29,129,299,143.44,1.44.1,2.9.18,4.36.26q15.58.87,32.19,1.11c76.13,1.05,152.29,0,228.42,0a197.55,197.55,0,0,1,111.22,35,190,190,0,0,1,40.8,38c20.78,26,35.26,59.47,41.06,93.55l.9,5.39c.43,3,.82,6,1.16,9V72.71C759.45,32.56,730,0,693.56,0Z"/><path class="cls-2" d="M779.28.27l.54.24c8.62,4.05,116.89,59.08,130,279,.08,1.34.16,2.7.24,4.06q.78,14.55,1,30.05c1,71.06,0,142.14,0,213.2a188.26,188.26,0,0,0,31.69,103.82,175.81,175.81,0,0,0,34.42,38.08c23.58,19.39,53.89,32.9,84.78,38.32l4.88.84q4.08.6,8.17,1.08H845.16c-36.38,0-65.88-27.54-65.88-61.5Z"/></g></g></svg>